PathFileType	3	(X/Y/Z)	E:\ViconData\BIOM9541 2025\Week 7\Mon0900\MingceV2 Cal 01.trc
DataRate	CameraRate	NumFrames	NumMarkers	Units	OrigDataRate	OrigDataStartFrame	OrigNumFrames
200.0	200.0	6	19	mm	200.0	35	273	
Frame#	Time	C7			CLAV			RBAK			LASI			RASI			LPSI			RPSI			LTHI			LKNE			LTIB			LANK			LHEE			LTOE			RTHI			RKNE			RTIB			RANK			RHEE			RTOE			
		X1	Y1	Z1	X2	Y2	Z2	X3	Y3	Z3	X4	Y4	Z4	X5	Y5	Z5	X6	Y6	Z6	X7	Y7	Z7	X8	Y8	Z8	X9	Y9	Z9	X10	Y10	Z10	X11	Y11	Z11	X12	Y12	Z12	X13	Y13	Z13	X14	Y14	Z14	X15	Y15	Z15	X16	Y16	Z16	X17	Y17	Z17	X18	Y18	Z18	X19	Y19	Z19	
35	0.17	239.90482	1430.2286	-1054.3673	244.05634	1381.5114	-913	83.136513	1409.406	-992.21698	336.14471	944.00519	-803.35852	108.40929	969.01581	-820.87231	267.98035	977.09491	-1018.836	198.88109	981.56927	-1017.4431	407.64285	669.5647	-870.71405	368.00876	471.5126	-911.42163	377.58292	262.64246	-991.92456	332.37512	79.443573	-957.75458	277.35132	45.312172	-1005.0908	323.17386	43.427853	-819.42273	48.034992	704.27362	-882.98706	95.867439	473.80716	-941.57642	80.160538	367.92032	-1012.175	125.45039	78.655708	-986.79053	187.89658	49.722706	-1017.4821	98.166351	43.048615	-849.51501
36	0.175	239.90247	1430.2626	-1054.2983	244.09018	1381.4941	-912.95404	83.155289	1409.4279	-992.16052	336.1546	943.98865	-803.36304	108.42515	968.98877	-820.87085	267.99408	977.14624	-1018.8236	198.89691	981.58777	-1017.4449	407.67102	669.55377	-870.69116	368.02823	471.52228	-911.37012	377.58954	262.61343	-991.93292	332.43503	79.472466	-957.68591	277.38635	45.25034	-1004.9627	323.17719	43.359566	-819.50647	48.006954	704.27484	-883.02283	95.84269	473.83688	-941.60468	80.172493	367.92331	-1012.1604	125.42401	78.663574	-986.7373	187.8931	49.736362	-1017.4401	98.183769	43.06073	-849.50677
37	0.18	239.9539	1430.2996	-1054.2706	244.08214	1381.5328	-912.92065	83.195435	1409.4457	-992.11816	336.14435	944.01544	-803.40515	108.40355	969.01465	-820.9118	268.0036	977.14703	-1018.8327	198.89737	981.61115	-1017.4558	407.68329	669.54126	-870.76178	368.06638	471.65991	-911.31903	377.6188	262.69781	-991.88324	332.44131	79.476517	-957.7561	277.42896	45.163498	-1004.9142	323.18396	43.375092	-819.61517	48.002117	704.28595	-883.07593	95.860344	473.82761	-941.65198	80.176872	367.91333	-1012.1799	125.51415	78.612709	-986.75958	187.881	49.702408	-1017.4359	98.21447	43.077717	-849.59467
38	0.185	239.9846	1430.2308	-1054.2388	244.08557	1381.6176	-912.88031	83.237389	1409.4957	-992.1012	336.15176	944.05414	-803.42206	108.38795	969.05347	-820.98279	268.04556	977.0976	-1018.8441	198.93835	981.60327	-1017.4604	407.70398	669.58746	-870.83929	368.06299	471.71167	-911.36829	377.62509	262.76627	-991.88873	332.48511	79.530045	-957.7865	277.51096	45.026512	-1004.8473	323.19382	43.433022	-819.63733	48.004482	704.28729	-883.10553	95.85891	473.8092	-941.68762	80.219421	367.86688	-1012.2634	125.48242	78.579132	-986.80066	187.88905	49.65654	-1017.4644	98.253227	43.108574	-849.70428
39	0.19	240.00421	1430.2341	-1054.1937	244.08875	1381.632	-912.79694	83.273193	1409.5118	-992.04926	336.1525	944.07019	-803.42572	108.38094	969.06921	-820.97498	268.06415	977.06757	-1018.8448	198.97432	981.5802	-1017.4612	407.70865	669.59839	-870.87927	367.56393	471.21716	-911.83215	377.62759	262.77219	-991.92578	332.49286	79.534431	-957.83649	277.51825	45.010696	-1004.8612	323.19147	43.407848	-819.67963	48.006962	704.3183	-883.13916	95.896553	473.7789	-941.69305	80.227234	367.85913	-1012.2991	125.48215	78.61203	-986.83533	187.91101	49.651897	-1017.4674	98.266663	43.124184	-849.73419
40	0.195	240.24408	1430.4243	-1053.8508	244.14215	1381.6265	-912.68451	83.296616	1409.5164	-991.99261	336.1619	944.03473	-803.42157	108.38892	969.06128	-820.96655	268.07791	977.0835	-1018.8633	198.96466	981.58966	-1017.4785	407.71011	669.58923	-870.84003	367.53989	471.12863	-911.86493	377.63821	262.73102	-991.92877	332.47189	79.495674	-957.86816	277.50485	45.084915	-1004.9344	323.18704	43.426437	-819.62775	48.0359	704.31598	-883.13165	95.930359	473.77792	-941.66791	80.200539	367.91904	-1012.3438	125.54902	78.634506	-986.85199	187.91405	49.673759	-1017.4828	98.271919	43.117313	-849.72253
